<?xml version="1.0" encoding="UTF-8"?>
<svg xmlns="http://www.w3.org/2000/svg" viewBox="0 0 64 64">
  <rect width="64" height="64" rx="12" fill="#000"/>
  <g fill="#fff">
    <circle cx="12" cy="10" r="1.8"/>
    <circle cx="17" cy="10" r="1.8"/>
    <circle cx="22" cy="10" r="1.8"/>
    <circle cx="7" cy="15" r="1.8"/>
    <circle cx="27" cy="15" r="1.8"/>
    <circle cx="7" cy="20" r="1.8"/>
    <circle cx="27" cy="20" r="1.8"/>
    <circle cx="7" cy="25" r="1.8"/>
    <circle cx="12" cy="25" r="1.8"/>
    <circle cx="17" cy="25" r="1.8"/>
    <circle cx="22" cy="25" r="1.8"/>
    <circle cx="27" cy="25" r="1.8"/>
    <circle cx="7" cy="30" r="1.8"/>
    <circle cx="27" cy="30" r="1.8"/>
    <circle cx="7" cy="35" r="1.8"/>
    <circle cx="27" cy="35" r="1.8"/>
    <circle cx="7" cy="40" r="1.8"/>
    <circle cx="27" cy="40" r="1.8"/>
    <circle cx="44" cy="10" r="1.8"/>
    <circle cx="49" cy="10" r="1.8"/>
    <circle cx="54" cy="10" r="1.8"/>
    <circle cx="39" cy="15" r="1.8"/>
    <circle cx="59" cy="15" r="1.8"/>
    <circle cx="39" cy="20" r="1.8"/>
    <circle cx="59" cy="20" r="1.8"/>
    <circle cx="39" cy="25" r="1.8"/>
    <circle cx="59" cy="25" r="1.8"/>
    <circle cx="39" cy="30" r="1.8"/>
    <circle cx="59" cy="30" r="1.8"/>
    <circle cx="39" cy="35" r="1.8"/>
    <circle cx="59" cy="35" r="1.8"/>
    <circle cx="44" cy="40" r="1.8"/>
    <circle cx="49" cy="40" r="1.8"/>
    <circle cx="54" cy="40" r="1.8"/>
    <circle cx="57" cy="45" r="1.8"/>
  </g>
</svg>


